HIERARCHY
ROOT Hips
{
	OFFSET	0.00	0.00	0.00
	CHANNELS 6 Xposition Yposition Zposition Zrotation Yrotation Xrotation
	JOINT Spine
	{
		OFFSET	 0.00	0.1	 0.00
		CHANNELS 3 Zrotation Yrotation Xrotation
		JOINT Spine1
		{
			OFFSET	 0.00	 24.5913012437421	 0.00
			CHANNELS 3 Zrotation Yrotation Xrotation
            JOINT Neck
            {
                OFFSET	 0.00	 24.8462964506057	 0.00
                CHANNELS 3 Zrotation Yrotation Xrotation
                JOINT Head
                {
                    OFFSET	 0.00	 9.27524780924562	 0.00
                    CHANNELS 3 Zrotation Yrotation Xrotation
                    End Site
                    {
                        OFFSET	 0.00	 11.4999962169752	 0.00
                    }
                }
            }
			JOINT LeftShoulder
			{
				OFFSET	 0.00	 24.8462964506057	 0.00
				CHANNELS 3 Zrotation Yrotation Xrotation
				JOINT LeftUpArm
				{
					OFFSET	 0.00	 12.4881979654096	 0.00
					CHANNELS 3 Zrotation Yrotation Xrotation
					JOINT LeftForeArm
					{
						OFFSET	 0.00	25.9758046908119	 0.00
						CHANNELS 3 Zrotation Yrotation Xrotation
						JOINT LeftHand
						{
							OFFSET	 0.00	24.5542024364365	 0.00
							CHANNELS 3 Zrotation Yrotation Xrotation
							JOINT LeftHandThumb
							{
								OFFSET	 0.00	0.00	 0.00
								CHANNELS 3 Zrotation Yrotation Xrotation
								End Site
								{
									OFFSET	 0.00	0.00	10.0000003353624
								}
							}
							JOINT L_Wrist_End
							{
								OFFSET	 0.00	9.9999967115358	 0.00
								CHANNELS 3 Zrotation Yrotation Xrotation
								End Site
								{
									OFFSET	 0.00	 0.00	 0.00
								}
							}
						}
					}
				}
			}
			JOINT RightShoulder
			{
				OFFSET	 0.00	 24.8462964506057	 0.00
				CHANNELS 3 Zrotation Yrotation Xrotation
				JOINT RightUpArm
				{
					OFFSET	 0.00	 12.4881979654096	 0.00
					CHANNELS 3 Zrotation Yrotation Xrotation
					JOINT RightForeArm
					{
						OFFSET	 0.00	25.9758046908119	 0.00
						CHANNELS 3 Zrotation Yrotation Xrotation
						JOINT RightHand
						{
							OFFSET	 0.00	24.5542024364365	 0.00
							CHANNELS 3 Zrotation Yrotation Xrotation
							JOINT RightHandThumb
							{
								OFFSET	 0.00	0.00	 0.00
								CHANNELS 3 Zrotation Yrotation Xrotation
								End Site
								{
									OFFSET	 0.00	0.00	10.0000003353624
								}
							}
							JOINT R_Wrist_End
							{
								OFFSET	 0.00	9.9999967115358	 0.00
								CHANNELS 3 Zrotation Yrotation Xrotation
								End Site
								{
									OFFSET	 0.00	 0.00	 0.00
								}
							}
						}
					}
				}
			}
		}
	}
	JOINT LeftUpLeg
	{
		OFFSET	 12.719394002717	 0.00	 0.00
		CHANNELS 3 Zrotation Yrotation Xrotation
		JOINT LeftLowLeg
		{
			OFFSET	 0.00	-43.429100912261	 0.00
			CHANNELS 3 Zrotation Yrotation Xrotation
			JOINT LeftFoot
			{
				OFFSET	 0.00	-44.8767017425826	 0.00
				CHANNELS 3 Zrotation Yrotation Xrotation
				JOINT LeftToeBase
                {
                    OFFSET	 0.00	0.00	 15.1507020887566
                    CHANNELS 3 Zrotation Yrotation Xrotation
                    End Site
                    {
                        OFFSET	 0.00	0.00	 7.5000010571191
                    }
                }
			}
		}
	}
	JOINT RightUpLeg
	{
		OFFSET	 -12.719393604653	 0.00	 0.00
		CHANNELS 3 Zrotation Yrotation Xrotation
		JOINT RightLowLeg
		{
			OFFSET	 0.00	-43.429100912261	 0.00
			CHANNELS 3 Zrotation Yrotation Xrotation
			JOINT RightFoot
			{
				OFFSET	 0.00	-44.8767017425826	 0.00
				CHANNELS 3 Zrotation Yrotation Xrotation
				JOINT RightToeBase
                {
                    OFFSET	 0.00	0.00	 15.1507020887566
                    CHANNELS 3 Zrotation Yrotation Xrotation
                    End Site 
                    {
                        OFFSET	 0.00	0.00	 7.49999965609858
                    }
                }   
			}
		}
	}
}
MOTION 
Frames:	6 
Frame Time: 0.04 
  -15.871499633789062 8.311060333251953 -61.451898193359376 6.145511296275472 -5.61211091182759 -90.84863113483914 8.945265082874888 26.20585189678765 2.383179421870158 9.34841458157266 -35.19044390832095 -2.9444702526460382 -33.930885036005776 -16.766438073419426 84.47713111732422 20.45857906678018 16.23760206732558 -61.784720931607126 -111.84799785806544 -11.183241069886146 -15.149553849929024 -29.259018929077957 -24.23265629721351 59.77195537437436 0.0 0.0 139.31500244140625 54.95694463551988 -4.852225875953496 12.19477254004296 0.0 0.0 0.0 0.0 0.0 0.0 95.3329420743633 6.638495222786454 0.4293849552880327 30.906885479478742 41.73569700138548 40.46245468015578 0.0 0.0 136.96099853515625 -61.57417368938706 22.373133551469127 -9.127698511127171 0.0 0.0 0.0 0.0 0.0 0.0 2.4987423856855018 2.9659014104433874 -1.7481022640608992 0.0 0.0 9.89840030670166 9.793487027220849 4.286246764370548 24.727388157707377 0.0 0.0 -27.106800079345703 12.2544319103326 -2.0892569895780584 -27.448280892584698 0.0 0.0 31.351999282836914 8.960859680132632 -16.81292723399256 36.65667144207041 0.0 0.0 -31.437499999999996 
  -16.132899475097656 8.239669799804688 -61.562799072265626 7.269267178661077 -6.074340085122192 -91.61353756716788 6.054605679783644 23.068996223687407 5.123363531581976 19.621275602987577 -37.74799401069524 -9.290369778989847 -33.70445523589281 -12.241435028127007 82.49497699593721 17.451830330681766 12.008665103982413 -61.00331322152855 -116.54369222683052 -13.189550094332105 -20.44956366338606 -28.806465010650584 -19.74250069473869 58.35447464661409 0.0 0.0 132.18299865722656 63.79723968048334 -12.792384342717622 9.814539333079257 0.0 0.0 0.0 0.0 0.0 0.0 91.9869592777863 4.651809258871738 7.718378904325575 29.88422490645215 41.29864271256022 34.52457663339939 0.0 0.0 130.656005859375 -59.96647740101456 24.456377511352247 -11.280651327732413 0.0 0.0 0.0 0.0 0.0 0.0 2.9580591963084295 3.188254916295015 -1.1079951528560912 0.0 0.0 10.338199615478516 10.511899429385357 4.628046014198391 24.121010077925504 0.0 0.0 -26.85029983520508 10.886703870724935 -1.4182659338820331 -26.15561909085848 0.0 0.0 31.54560089111327 7.561840435620997 -17.508426560346322 36.95962376251604 0.0 0.0 -30.22200012207031 
  -16.385699462890624 8.235369873046874 -61.70579833984375 8.086390723119774 -6.554110847409577 -91.74536128268606 3.2036254560583415 20.179630109377932 7.876097515972017 30.82187257966129 -38.9245188971791 -16.900220247763112 -33.084137855346924 -6.352356231743473 78.53300881710427 15.59030235028881 5.866622034364449 -57.52753188154454 -120.88906793518308 -15.312996920215271 -23.088505777871354 -28.84835921763817 -15.15314505050416 55.18517174947386 0.0 0.0 120.44000244140625 67.05904681534778 -12.450488004440077 9.94315818454468 0.0 0.0 0.0 0.0 0.0 0.0 87.7723522544814 6.375339561820687 13.528940630661214 27.91750653129204 34.324954525798994 27.705284083333584 0.0 0.0 123.0979995727539 -58.411135427849196 25.17360033935541 -11.631698738002376 0.0 0.0 0.0 0.0 0.0 0.0 3.332246888549153 2.99780724450725 -1.101116994109532 0.0 0.0 10.769000053405762 11.262516381350938 4.01863822148519 23.38573458052486 0.0 0.0 -26.767398834228516 9.922936743561243 -1.5346663012907222 -24.909543226459135 0.0 0.0 31.197500228881836 7.900143446349061 -18.786219787200974 36.8981664790209 0.0 0.0 -28.906000137329098 
  -16.655299377441406 8.19540023803711 -61.740997314453125 9.372472544608877 -6.849831120916852 -91.23499632523801 2.2115915647982547 18.77412012301118 9.051841449920074 34.43004057174721 -40.00082148059892 -19.16968743578972 -33.30722023533075 -3.7580505793089722 77.96241075266941 14.292583277076364 3.6197810175883176 -57.21222464944009 -122.88634249801902 -16.424646278037535 -23.64632240215785 -30.160189796144728 -10.738863215523955 53.25526708696172 0.0 0.0 107.7969970703125 59.990056167468865 -8.524910031268432 6.700594942821768 0.0 0.0 0.0 0.0 0.0 0.0 87.39665951609786 8.74005290618016 16.09568932853282 26.00366995259122 26.348889154964382 22.37778428381077 0.0 0.0 114.69400024414062 -54.6000477905676 26.608537443755 -11.268906325411933 0.0 0.0 0.0 0.0 0.0 0.0 3.4118733770393814 2.535767887968362 -1.6036006993832779 0.0 0.0 10.905799865722656 12.094096955608922 3.3185162073897927 23.18197465485934 0.0 0.0 -26.91909980773926 8.887230712959367 -0.4787579062541004 -24.22710017041809 0.0 0.0 30.224899291992188 8.27673084254589 -20.582765198804587 39.12844891881927 0.0 0.0 -31.284999847412113 
  -16.9375 8.261009979248048 -61.596002197265626 11.000768415267963 -7.199244830629499 -91.28246415767521 13.401834590764578 30.18338652042089 0.23695657915551693 -5.913124681849986 -36.788799676007166 14.550594033263092 -37.80353627308607 -21.48218051245959 95.02563644153807 15.12357416726883 21.862925075579255 -57.57397646594526 -115.70114982882865 -8.49413349027884 -0.497957232316131 -26.1901600059218 -8.615386050620103 51.20630750346947 0.0 0.0 96.74510192871094 55.761990646938635 -8.518631318599189 1.5962243771978013 0.0 0.0 0.0 0.0 0.0 0.0 103.59003109048503 13.785789935988756 -4.276181654975966 21.20831891487481 19.849091134426786 21.700427738960887 0.0 0.0 105.05400085449219 -51.19115417392401 25.198110083515683 -8.153744699344655 0.0 0.0 0.0 0.0 0.0 0.0 3.5572291109751375 2.672499182142258 -1.529243668455582 0.0 0.0 11.243300437927246 13.521268249807207 2.394255163709062 22.44730221439671 0.0 0.0 -27.576299667358402 8.46560113104541 0.05063327869474891 -22.967309896648203 0.0 0.0 29.632900238037106 7.661214557332052 -20.89042025290456 40.130512245715124 0.0 0.0 -31.250699996948242 
  -17.174000549316407 8.356279754638672 -61.54749755859375 12.882361827789238 -7.101913772691878 -91.32202628269293 14.784306852685038 30.52286066938432 0.2977192633306215 -11.080233018872034 -36.445712104430775 19.46217951490473 -37.61189428386987 -21.609940464389034 95.92254022765185 13.213310901063547 23.25602363792579 -57.54719649509635 -114.88063493093908 -7.8014561517883765 2.6476024028521508 -23.0227584243459 -3.9507783247546384 48.236051436660844 0.0 0.0 86.11409759521484 54.11025149512732 -8.931724159927757 2.3641130014149305 0.0 0.0 0.0 0.0 0.0 0.0 104.8746650902987 14.983202726555058 -5.439006459776366 19.77384760039312 11.454038900058222 20.99210433568987 0.0 0.0 95.50869750976562 -45.47422115138817 23.54889201650921 -6.940067880534075 0.0 0.0 0.0 0.0 0.0 0.0 3.0849273034560873 1.0312939272998114 -1.3494585794561167 0.0 0.0 11.379300117492676 14.095601038436302 2.8630020189855325 22.449885879931017 0.0 0.0 -27.664400100708008 7.87480827106389 0.6282553061018316 -21.446453851688762 0.0 0.0 28.399499893188477 8.659044280261433 -20.99581172880555 40.217130317037004 0.0 0.0 -31.340700149536136 
